PathFileType	4	(X/Y/Z)	D:\MotionData\NordSprintingStudy\Test 2\Edited\JustTheBoards000001.trc
DataRate	CameraRate	NumFrames	NumMarkers	Units	OrigDataRate	OrigDataStartFrame	OrigNumFrames
200.00	200.00	       49	5	mm	200.00	1	       624
Frame#	Time	M1			M2			M3			M4			M5			
		X1	Y1	Z1	X2	Y2	Z2	X3	Y3	Z3	X4	Y4	Z4	X5	Y5	Z5	

1	0.000	917.01904	1916.83752	47.54099	901.03973	2236.91211	59.00284	1100.65771	2247.54565	58.03684	1500.22144	2267.95996	58.50512	1515.90332	1946.83923	47.55357	
2	0.005	916.99225	1916.84680	47.52367	900.95398	2236.82910	59.00276	1100.73767	2247.60376	57.93931	1500.23816	2267.96216	58.51749	1515.93311	1946.84436	47.50581	
3	0.010	916.98566	1916.82495	47.56898	901.03473	2236.85278	58.99142	1100.72131	2247.58960	57.92935	1500.29285	2267.99243	58.42990	1515.91174	1946.85217	47.55429	
4	0.015	917.09845	1916.86877	47.40021	901.03662	2236.85645	59.00436	1100.78821	2247.57739	57.89993	1500.20947	2267.96606	58.54412	1515.98328	1946.86951	47.43307	
5	0.020	917.13092	1916.86743	47.40918	901.09961	2236.90186	58.87671	1100.77234	2247.58740	57.91716	1500.33203	2268.02515	58.37662	1516.03821	1946.86340	47.42085	
6	0.025	917.15796	1916.90063	47.37099	901.13702	2236.87598	58.86661	1100.81384	2247.59277	57.88735	1500.36218	2268.02661	58.38414	1516.04443	1946.87610	47.38960	
7	0.030	917.18866	1916.88599	47.35008	901.10236	2236.87646	58.90878	1100.88013	2247.62524	57.81359	1500.40051	2268.03638	58.34714	1516.09009	1946.88867	47.39579	
8	0.035	917.16089	1916.87207	47.41267	901.25122	2236.78784	58.85759	1100.88000	2247.60596	57.81543	1500.47656	2268.04077	58.32016	1516.08850	1946.87048	47.41140	
9	0.040	917.21356	1916.88647	47.33183	901.16290	2236.90015	58.89941	1100.94006	2247.62915	57.81953	1500.45496	2268.02393	58.34082	1516.10632	1946.87036	47.38124	
10	0.045	917.27783	1916.87854	47.29100	901.20929	2236.89941	58.82861	1100.92834	2247.61060	57.77378	1500.45300	2268.03809	58.34767	1516.20178	1946.88538	47.30593	
11	0.050	917.27533	1916.87268	47.28800	901.21289	2236.92578	58.83920	1100.90942	2247.63574	57.84203	1500.58240	2268.03418	58.24794	1516.19922	1946.90723	47.33516	
12	0.055	917.27020	1916.87610	47.33498	901.21808	2236.86279	58.82571	1100.95068	2247.61133	57.77623	1500.56616	2268.06396	58.32444	1516.15283	1946.88306	47.37231	
13	0.060	917.26093	1916.88147	47.34134	901.12506	2236.87231	58.92627	1100.91602	2247.59961	57.79283	1500.50586	2268.06079	58.31522	1516.11523	1946.85742	47.40277	
14	0.065	917.30316	1916.88208	47.30188	901.21240	2236.85815	58.82528	1100.96985	2247.62061	57.79723	1500.38867	2268.01392	58.46738	1516.18872	1946.86719	47.35924	
15	0.070	917.23645	1916.87219	47.37090	901.19769	2236.90674	58.90672	1100.84033	2247.58032	57.95295	1500.49792	2268.03125	58.38868	1516.12109	1946.86938	47.42964	
16	0.075	917.23761	1916.86926	47.40067	901.18719	2236.88013	58.90688	1100.91089	2247.61255	57.85742	1500.42383	2268.04565	58.42600	1516.11682	1946.87000	47.44379	
17	0.080	917.14130	1916.85803	47.49453	901.11633	2236.86230	58.99178	1100.84741	2247.58643	57.92152	1500.39404	2268.01221	58.43596	1516.04224	1946.84766	47.52528	
18	0.085	917.14081	1916.85730	47.43639	901.20142	2236.74048	58.99426	1100.80640	2247.57080	57.98732	1500.26270	2267.96729	58.62653	1516.08057	1946.86377	47.46526	
19	0.090	917.08380	1916.83850	47.52824	901.09125	2236.89087	59.02673	1100.66858	2247.55884	58.09317	1500.31531	2267.98071	58.51245	1515.97766	1946.86499	47.53317	
20	0.095	917.05023	1916.84045	47.55217	901.08612	2236.88257	59.01614	1100.74780	2247.58008	57.99305	1500.24841	2267.96704	58.55548	1515.93896	1946.85010	47.54266	
21	0.100	916.98175	1916.81848	47.63012	900.99457	2236.87646	59.08793	1100.68469	2247.57422	58.03605	1500.19800	2267.96338	58.56821	1515.88904	1946.81824	47.59278	
22	0.105	916.99463	1916.81238	47.55590	901.05157	2236.82983	58.98243	1100.66370	2247.56152	58.04266	1500.08130	2267.91675	58.65410	1515.89783	1946.81445	47.55122	
23	0.110	916.97375	1916.83105	47.56430	900.96832	2236.81079	59.07795	1100.61987	2247.55615	58.05968	1500.12952	2267.92798	58.57462	1515.87207	1946.78650	47.57283	
24	0.115	916.96777	1916.81128	47.55410	900.94800	2236.85352	59.11331	1100.64343	2247.54639	58.05273	1500.05371	2267.90527	58.63746	1515.86194	1946.79187	47.57174	
25	0.120	916.96588	1916.80872	47.54502	900.94769	2236.83813	59.04765	1100.58459	2247.54175	58.06192	1500.12097	2267.92676	58.53165	1515.84290	1946.78638	47.58179	
26	0.125	916.97369	1916.79822	47.52585	901.01062	2236.87012	58.98346	1100.62219	2247.54810	58.03780	1500.05481	2267.93408	58.63302	1515.88586	1946.79895	47.52709	
27	0.130	916.95428	1916.81799	47.53324	900.97931	2236.84033	59.03590	1100.57581	2247.52954	58.12241	1500.14563	2267.96313	58.50556	1515.87268	1946.79651	47.54538	
28	0.135	916.97308	1916.83118	47.53773	900.98340	2236.85669	59.01450	1100.65881	2247.57349	57.96774	1500.22241	2267.98877	58.44093	1515.84070	1946.81042	47.58284	
29	0.140	917.01862	1916.84131	47.48806	901.02325	2236.85938	58.93322	1100.69177	2247.59473	57.96201	1500.22742	2267.99268	58.44905	1515.95093	1946.84082	47.46585	
30	0.145	917.06104	1916.84290	47.44025	901.03333	2236.88428	58.96844	1100.67090	2247.58521	57.97690	1500.24597	2268.00635	58.44085	1515.94214	1946.83716	47.47671	
31	0.150	917.06036	1916.86633	47.47469	901.02136	2236.86865	59.01715	1100.75037	2247.58789	57.91064	1500.29736	2268.01147	58.39077	1515.96057	1946.84265	47.50589	
32	0.155	917.16150	1916.88000	47.38832	901.13849	2236.90723	58.91221	1100.79102	2247.59326	57.89856	1500.36182	2268.08154	58.33185	1516.04993	1946.87402	47.40538	
33	0.160	917.19305	1916.88086	47.37076	901.24872	2236.79785	58.86992	1100.87720	2247.60815	57.79996	1500.39429	2268.05420	58.36309	1516.08228	1946.85754	47.41514	
34	0.165	917.21167	1916.87378	47.35210	901.07977	2236.85913	58.96941	1100.85144	2247.60718	57.84406	1500.39514	2268.04858	58.38892	1516.08728	1946.85938	47.42488	
35	0.170	917.22736	1916.86926	47.33134	901.21338	2236.88843	58.87015	1100.84570	2247.58936	57.92955	1500.47571	2268.05176	58.33419	1516.13391	1946.88257	47.37757	
36	0.175	917.21124	1916.86694	47.40765	901.22247	2236.90479	58.86152	1100.92932	2247.62061	57.79285	1500.52710	2268.07593	58.28540	1516.13257	1946.87158	47.42889	
37	0.180	917.31628	1916.89990	47.27369	901.25671	2236.85962	58.79317	1100.93994	2247.58203	57.79737	1500.48291	2268.04932	58.35778	1516.20117	1946.88000	47.34753	
38	0.185	917.28546	1916.88562	47.31248	901.22906	2236.86353	58.86040	1100.90979	2247.59814	57.88323	1500.59839	2268.05493	58.29857	1516.18494	1946.88037	47.36696	
39	0.190	917.26941	1916.87585	47.37033	901.24066	2236.88110	58.84699	1100.96375	2247.61108	57.80651	1500.55029	2268.03735	58.28454	1516.18152	1946.86780	47.38930	
40	0.195	917.31171	1916.88989	47.27380	901.12897	2236.89941	58.97224	1100.91760	2247.62134	57.85304	1500.42883	2268.02100	58.41523	1516.17676	1946.87183	47.36845	
41	0.200	917.30048	1916.87402	47.32741	901.23450	2236.83813	58.87020	1100.95349	2247.62451	57.82556	1500.42725	2267.99707	58.44336	1516.20728	1946.87512	47.36338	
42	0.205	917.23816	1916.87671	47.35564	901.33344	2236.82837	58.80640	1100.82458	2247.61011	57.92839	1500.46350	2268.01440	58.37963	1516.13721	1946.86304	47.38612	
43	0.210	917.22394	1916.87158	47.39602	901.14978	2236.87231	58.93786	1100.87329	2247.60767	57.87176	1500.41907	2268.02881	58.39709	1516.10059	1946.86487	47.45201	
44	0.215	917.11090	1916.86035	47.49812	901.12561	2236.89990	58.97586	1100.84851	2247.59644	57.87648	1500.36877	2268.04077	58.44857	1516.03406	1946.84534	47.46711	
45	0.220	917.13177	1916.83411	47.44316	901.09613	2236.88672	58.94128	1100.77039	2247.59839	57.94292	1500.20776	2267.99609	58.55529	1516.02869	1946.84009	47.45494	
46	0.225	917.07806	1916.84998	47.47937	901.05664	2236.87012	59.02435	1100.71204	2247.59668	58.01334	1500.24072	2268.00342	58.47472	1515.95410	1946.84363	47.52066	
47	0.230	917.01154	1916.83093	47.55476	900.96741	2236.85205	59.11948	1100.69922	2247.55005	58.02103	1500.21521	2267.98828	58.54673	1515.89429	1946.82446	47.55249	
48	0.235	917.03046	1916.84033	47.52117	901.01593	2236.86816	59.02995	1100.70654	2247.56689	58.00511	1500.05664	2267.94922	58.65800	1515.92920	1946.82764	47.55387	
49	0.240	916.94617	1916.83167	47.59888	900.98047	2236.84595	59.04770	1100.68250	2247.55566	58.03169	1500.12378	2267.97144	58.59912	1515.87573	1946.83057	47.57210	
